<?xml version="1.0" encoding="UTF-8" standalone="no"?>
<!-- Created with Inkscape (http://www.inkscape.org/) -->

<svg
   width="210mm"
   height="297mm"
   viewBox="0 0 210 297"
   version="1.1"
   id="svg5"
   inkscape:version="1.1.2 (b8e25be833, 2022-02-05)"
   sodipodi:docname="drawing.svg"
   xmlns:inkscape="http://www.inkscape.org/namespaces/inkscape"
   xmlns:sodipodi="http://sodipodi.sourceforge.net/DTD/sodipodi-0.dtd"
   xmlns="http://www.w3.org/2000/svg"
   xmlns:svg="http://www.w3.org/2000/svg">
  <sodipodi:namedview
     id="namedview7"
     pagecolor="#ffffff"
     bordercolor="#666666"
     borderopacity="1.0"
     inkscape:pageshadow="2"
     inkscape:pageopacity="0.0"
     inkscape:pagecheckerboard="0"
     inkscape:document-units="mm"
     showgrid="false"
     inkscape:snap-global="true"
     inkscape:snap-bbox="false"
     inkscape:snap-intersection-paths="true"
     inkscape:zoom="0.70710678"
     inkscape:cx="215.66757"
     inkscape:cy="540.93669"
     inkscape:window-width="1920"
     inkscape:window-height="1001"
     inkscape:window-x="-9"
     inkscape:window-y="-9"
     inkscape:window-maximized="1"
     inkscape:current-layer="layer1" />
  <defs
     id="defs2" />
  <g
     inkscape:label="Layer 1"
     inkscape:groupmode="layer"
     id="layer1">
    <g
       id="g7570"
       transform="matrix(5.3758408,0,0,5.3758408,-227.67082,-253.47855)"
       inkscape:export-filename="C:\Users\benja\Downloads\logo.png"
       inkscape:export-xdpi="96"
       inkscape:export-ydpi="96">
      <ellipse
         style="fill:#d3d3d3;fill-opacity:1;stroke:none;stroke-width:0.547;stroke-miterlimit:4;stroke-dasharray:none"
         id="path2239"
         cx="62.119202"
         cy="73.223442"
         rx="7.1437497"
         ry="3.5718749" />
      <path
         id="path2239-6"
         style="fill:#d3d3d3;fill-opacity:1;stroke:none;stroke-width:1.88976;stroke-miterlimit:4;stroke-dasharray:none"
         d="m 192.67578,275.04492 a 42.272189,21.136095 0 0 0 -0.16601,1.70508 42.272189,21.136095 0 0 0 42.27148,21.13672 42.272189,21.136095 0 0 0 42.27148,-21.13672 42.272189,21.136095 0 0 0 -0.1582,-1.70508 h -0.44726 a 42.272189,21.136095 0 0 1 -41.66602,17.71485 42.272189,21.136095 0 0 1 -41.66797,-17.71485 z"
         transform="scale(0.26458333)" />
      <path
         id="path2239-6-2"
         style="fill:#d3d3d3;fill-opacity:1;stroke:none;stroke-width:1.91622;stroke-miterlimit:4;stroke-dasharray:none"
         d="m 178.07227,275.04492 a 56.880358,28.440179 0 0 0 -0.17188,1.70508 56.880358,28.440179 0 0 0 56.88086,28.43945 56.880358,28.440179 0 0 0 56.88086,-28.43945 56.880358,28.440179 0 0 0 -0.16016,-1.70508 H 291.125 a 56.880358,28.440179 0 0 1 -56.34375,25.01953 56.880358,28.440179 0 0 1 -56.34961,-25.01953 z"
         transform="scale(0.26458333)" />
    </g>
  </g>
</svg>
